<?xml version="1.0" encoding="utf-8"?>
<!-- Generator: Adobe Illustrator 23.0.2, SVG Export Plug-In . SVG Version: 6.00 Build 0)  -->
<svg version="1.1" id="Layer_1" xmlns="http://www.w3.org/2000/svg" xmlns:xlink="http://www.w3.org/1999/xlink" x="0px" y="0px"
	 viewBox="0 0 379.7187 289.6323" enable-background="new 0 0 379.7187 289.6323" xml:space="preserve">
<g>
	<path d="M18.8359,232.2998c-1.1934,0-2.3203-0.0303-3.4151-0.0728l-8.9697,45.4673c-1.0664,5.419,2.459,10.6778,7.877,11.7471
		c0.6543,0.1289,1.3047,0.1909,1.9463,0.1909c4.6787,0.0005,8.8584-3.3022,9.7998-8.0664L36.0859,230.81
		c-6.5371,1.086-12.3027,1.4898-17.2383,1.4898C18.8437,232.2998,18.8398,232.2998,18.8359,232.2998z"/>
	<rect x="92.6074" y="241.0473" width="28.6113" height="6"/>
	<path d="M231.996,5.3584h108.7325L251.1621,28.208v245.6079l0.4531-0.1152l104.4746-26.6534h23.6289v-6h-17.0918V0H226.6347
		v113.7358c1.707,0.687,3.4883,1.2632,5.3613,1.7383V5.3584z M261.0273,135.7514l8.0391-2.6796V183.98l-8.0391,2.6797V135.7514z"/>
	<path d="M244.4707,240.2485H231.996V139.9839c-1.8203-0.3003-3.6054-0.6709-5.3613-1.1026v102.166h-31.5273v6h49.3633V240.2485z"/>
	<path d="M185.5234,103.5766c4.1543,4.6675,9.0703,11.6275,16.4336,18.087c7.3535,6.4716,17.4238,12.2675,31.0762,14.4404
		c0.4335,0.0703,0.8652,0.1045,1.291,0.1045c3.8535,0,7.25-2.7925,7.8867-6.7188c0.707-4.3623-2.2539-8.4712-6.6152-9.1787
		c-8.1114-1.331-13.9512-4.0083-18.8223-7.3511c-7.2969-5.0107-12.3496-11.8095-17.8477-18.3422
		c-2.7715-3.2461-5.6738-6.4615-9.457-9.1177c-3.3496-2.3779-7.6426-4.1607-12.3691-4.4795
		c-0.3028-0.0361-0.6094-0.0601-0.9219-0.0601h-0.6729c-0.0224,0-0.0429-0.0024-0.0654-0.0024
		c-0.0156,0-0.0312,0.0024-0.0478,0.0024h-6.627c-3.7256,8.7891-12.4404,14.9693-22.5713,14.9693
		c-7.7695,0-14.7012-3.6402-19.1933-9.3003c-3.4014,2.7636-6.5303,6.25-9.168,10.2817c-1.5557,2.4243-2.9502,5.0484-3.9903,7.8613
		c-1.1289,3.0528-1.8388,6.3287-1.8652,9.8252c-0.0098,3.4092,0.7578,7.0464,2.584,10.3687
		c2.7363,5.041,7.6543,8.9023,13.8809,11.248c6.2675,2.3804,14.0058,3.5459,23.8535,3.5581
		c1.7285-0.0019,3.5195-0.039,5.3808-0.1137c4.416-0.1763,7.8516-3.8985,7.6739-8.3135c-0.1778-4.4131-3.8985-7.8491-8.3145-7.6729
		c-1.6621,0.0665-3.2402,0.0997-4.7402,0.0997c-11.4063,0.0371-18.1114-1.9971-21.0918-3.9405
		c-1.5215-0.9702-2.1856-1.7998-2.6055-2.5444c-0.4023-0.7505-0.6113-1.5405-0.6191-2.6895
		c-0.085-1.9223,0.8769-4.8291,2.498-7.6948l2.1582,0.2764c-1.7285,2.8472-2.7265,5.7392-2.6562,7.3281
		c0.0078,0.9551,0.1562,1.4155,0.3828,1.8369c0.2422,0.4278,0.6777,1.0113,1.916,1.7998c1.3184,0.8594,6.584,3.6284,19.707,3.6284
		l0.3028-0.0019c1.4726,0,3.039-0.0313,4.6699-0.0977c0.1347-0.0039,0.2695-0.0083,0.4043-0.0083
		c5.3847,0,9.7695,4.2178,9.9863,9.6026c0.1074,2.6675-0.8301,5.2182-2.6426,7.1821c-1.8125,1.9614-4.2793,3.1011-6.9492,3.209
		c-1.8594,0.0747-3.6973,0.1123-5.459,0.1162h-0.0019h-0.002c-8.9844-0.0132-16.3594-0.9917-22.4785-2.9712v18.2783v98
		c0,6.8301,5.5371,12.3633,12.3633,12.3633c6.8281,0,12.3652-5.5332,12.3652-12.3633V164.81h4.6348v90.2715
		c0,6.8301,5.5371,12.3633,12.3633,12.3633c6.8281,0,12.3652-5.5332,12.3652-12.3633v-98v-18.9394v-30.315v-6.0122
		C184.4287,102.3574,184.9648,102.936,185.5234,103.5766z"/>
	<circle cx="146.1933" cy="71.4287" r="22.5"/>
	<path d="M61.54,282.2446c1.3271,4.2949,5.2822,7.0542,9.5537,7.0542c0.9766,0.0005,1.9688-0.144,2.9512-0.4468
		c5.2773-1.6303,8.2353-7.2295,6.6074-12.5044l-16.4785-53.3921c-6.8428,2.6456-13.209,4.5977-19.0772,6.0142L61.54,282.2446z"/>
	<path d="M3.996,227.8706c3.3379,0.7099,8.3223,1.4277,14.8399,1.4277c14.6445-0.0024,37.04-3.6201,65.9082-19.1875
		c-3.6865-5.3911-6.6338-10.6733-9.0371-15.8213c-0.0391,0.0005-0.0772,0.0078-0.1162,0.0078c-1.4336,0-2.8653-0.3505-4.1397-1.0131
		c-13.9238-7.2046-24.5322-17.0684-30.6777-28.524c-5.4766-10.1582-6.624-19.7212-6.6221-25.9546
		c0.002-4.7319,0.6397-7.8613,0.835-8.7084c0.959-4.0992,4.5615-6.9566,8.7588-6.9566c0.6904,0,1.3818,0.0801,2.0576,0.2383
		c4.8027,1.1274,7.8164,5.9551,6.7207,10.7671v0.0019l-0.0195,0.104c-0.0332,0.1641-0.0782,0.4449-0.127,0.8311
		c-0.1035,0.7871-0.2246,2.0644-0.2246,3.7226c0.0019,4.169,0.7793,10.5762,4.4678,17.4185
		c2.6406,4.8696,6.2685,9.2178,10.9541,13.1216c-0.7793-3.8804-1.3457-7.6216-1.7784-11.1934
		c-1.8212-15.313-1.5234-27.6303-5.8486-35.1074c-2.8515-4.9556-7.5283-8.1821-16.9892-9.4106
		c-0.8565-0.1065-1.6905-0.1587-2.5088-0.1587c-6.8985,0.0083-12.585,3.7031-17.5,10.1064
		c-4.8858,6.3887-8.8125,15.4155-11.8819,25.5034c-6.1533,20.1763-8.9326,44.5567-10.1504,60.7945
		C0.2871,218.249,0.0683,224.4375,0,226.8247c0.0761,0.0244,0.1562,0.0503,0.2412,0.0771
		C1.0703,227.1611,2.3281,227.5151,3.996,227.8706z"/>
	<path d="M48.8212,66.8237c-12.2216,2.2344-20.3183,13.9512-18.0839,26.1719c2.2343,12.2207,13.955,20.3164,26.1728,18.0801
		c12.2207-2.2325,20.3164-13.9512,18.085-26.17C72.7607,72.6831,61.04,64.5864,48.8212,66.8237z"/>
	<path d="M54.8593,157.1733c-3.8769-7.1919-4.7051-13.9101-4.707-18.3672c0-1.7187,0.123-3.0869,0.2402-3.9751
		c0.0567-0.4423,0.1114-0.7666,0.1455-0.9546c0.0166-0.0839,0.0284-0.1411,0.0342-0.1684c0-0.0029,0.001-0.0049,0.002-0.0059
		v-0.0005c0-0.0009,0-0.0009,0-0.0009c0.8545-3.7515-1.4766-7.4937-5.2285-8.3726c-3.7618-0.8823-7.5293,1.4546-8.4122,5.2173
		c-0.0937,0.4082-0.7793,3.4673-0.7812,8.2607c-0.0029,6.17,1.1562,15.3086,6.3828,25.0093
		c5.2061,9.7051,14.5088,19.7642,29.8379,27.6943c1.0293,0.5347,2.1318,0.7881,3.2168,0.7881c2.5312,0,4.9736-1.3759,6.2187-3.7768
		c1.7813-3.4312,0.4434-7.6563-2.9882-9.437C65.6777,172.2358,58.7578,164.3638,54.8593,157.1733z"/>
</g>
</svg>
