<svg xmlns="http://www.w3.org/2000/svg" xml:space="preserve" width="2000" height="80" data-id="lg_1FvVbU8jisgJ2b9ldI" data-version="1"><g data-padding="20"><g transform="translate(425.741 14.904)scale(.55896)"><ellipse cx="886.983" cy="-3095.426" fill="none" stroke="#0007d1" stroke-width="1.5" paint-order="stroke" rx="140.58" ry="68" transform="matrix(.16 .16 -.18 .18 155.71 399.83)"/><path fill="#0007d1" d="M842.228 33.947v49.92h-13.76v-49.92Zm47.98 26.97q0 4.05-.99 8.46-.99 4.4-2.75 8.63-1.77 4.23-4.23 7.95-2.46 3.73-5.41 6.44l-4.4-2.4q.93-1.73 1.76-3.88.84-2.15 1.51-4.56.68-2.41 1.22-4.97.53-2.57.9-5.08.36-2.51.55-4.89.19-2.37.19-4.42 0-1.35-.1-2.89-.11-1.55-.44-3.09-.32-1.54-.88-2.96-.55-1.43-1.47-2.5-.92-1.08-2.22-1.73-1.3-.66-3.07-.66-1.73 0-3.08.78-1.36.78-2.4 2.04-1.04 1.27-1.78 2.9-.75 1.63-1.22 3.34-.46 1.72-.67 3.38-.21 1.67-.21 2.98v20.08h-11.75v-40.04h4.5l5.38 9.32q.97-2.32 2.42-4.23 1.46-1.9 3.3-3.26 1.84-1.35 4.07-2.08 2.24-.72 4.84-.72 4.16 0 7.24 1.35 3.09 1.35 5.13 3.76 2.05 2.41 3.06 5.72 1 3.31 1 7.23m40.6-17.09-15.77 40.04h-10.54l-14.56-40.04h11.72l10.67 31.89 10.37-31.89Zm14.13-9.68q0 1.32-.5 2.5t-1.37 2.05q-.87.86-2.04 1.36-1.18.51-2.5.51t-2.48-.51q-1.16-.5-2.03-1.36-.86-.87-1.37-2.05-.5-1.18-.5-2.5 0-1.31.5-2.48.51-1.16 1.37-2.02.87-.87 2.03-1.37 1.16-.51 2.48-.51t2.5.51q1.17.5 2.04 1.37.87.86 1.37 2.02.5 1.17.5 2.48m-.52 9.71v40.01h-11.75v-40.01Zm21.77 4.6v35.4h-11.75v-35.4h-7.28v-4.64h7.28v-14.74h11.75v14.74h12.13v4.64Zm22.32 16.41q2.15.48 4.3.76t4.34.28q2.28 0 4.24-.43 1.96-.44 3.4-1.46t2.27-2.72.83-4.23q0-2.05-.55-3.74-.56-1.7-1.65-2.92-1.09-1.21-2.69-1.89-1.59-.67-3.7-.67-1.98 0-3.56.73-1.58.72-2.77 1.95-1.2 1.24-2.05 2.86-.85 1.63-1.4 3.4-.56 1.77-.8 3.57-.24 1.81-.24 3.4v.55q0 .28.03.56m28.88-7.9q0 2.46-.8 4.38-.79 1.92-2.16 3.38t-3.17 2.46q-1.81 1.01-3.85 1.65-2.05.64-4.21.92-2.17.28-4.22.28-2.6 0-5.13-.37-2.53-.36-4.99-1.16.38 2.29 1.21 4.35.84 2.06 2.22 3.61 1.39 1.54 3.42 2.44t4.8.9q1.84 0 3.5-.55 1.66-.56 3.05-1.56 1.39-1.01 2.44-2.4 1.06-1.38 1.72-3.08l5.06 1.87q-1.14 2.74-3.13 4.73-2 2-4.51 3.3-2.52 1.3-5.34 1.92-2.83.62-5.6.62-4.58 0-8.46-1.54t-6.69-4.31q-2.81-2.78-4.4-6.63-1.6-3.84-1.6-8.42t1.6-8.42q1.59-3.85 4.4-6.63 2.81-2.77 6.69-4.31t8.46-1.54q2.22 0 4.54.31t4.51.99q2.18.67 4.12 1.75 1.95 1.07 3.38 2.65 1.44 1.58 2.29 3.66t.85 4.75m61.29 20.52v6.38h-41.85v-6.38h-.03l26.1-37.17h-26.07v-6.37h41.85v6.37l-26.11 37.17Z"/><path fill="#0007d1" d="M1123.288 63.757q0 3.12-.83 5.86t-2.31 5.06q-1.47 2.32-3.55 4.18-2.08 1.85-4.56 3.14-2.48 1.28-5.3 1.97-2.83.69-5.81.69t-5.79-.69-5.29-1.97q-2.48-1.29-4.56-3.14-2.08-1.86-3.55-4.18t-2.3-5.08q-.84-2.75-.84-5.84t.84-5.84q.83-2.76 2.3-5.08t3.55-4.18q2.08-1.85 4.56-3.14 2.48-1.28 5.29-1.97t5.79-.69 5.81.69q2.82.69 5.3 1.97 2.48 1.29 4.56 3.14 2.08 1.86 3.55 4.18 1.48 2.32 2.31 5.08.83 2.75.83 5.84m-11.92 0q0-1.66-.2-3.52-.19-1.85-.64-3.64-.45-1.78-1.23-3.43t-1.92-2.88q-1.15-1.23-2.74-1.97-1.6-.75-3.71-.75-2.01 0-3.57.76-1.56.77-2.72 2.03-1.16 1.27-1.94 2.93t-1.27 3.45q-.48 1.79-.69 3.61t-.21 3.41.21 3.41q.21 1.83.69 3.63.49 1.8 1.27 3.45.78 1.64 1.94 2.91 1.16 1.26 2.72 2.03 1.56.76 3.57.76 2.08 0 3.67-.75 1.6-.74 2.76-1.99t1.93-2.88q.76-1.63 1.23-3.43.46-1.8.65-3.64.2-1.84.2-3.5m57.12-2.84q0 4.05-.98 8.46-.99 4.4-2.76 8.63t-4.23 7.95q-2.46 3.73-5.41 6.44l-4.4-2.4q.94-1.73 1.77-3.88t1.51-4.56q.67-2.41 1.21-4.97.54-2.57.9-5.08t.55-4.89q.2-2.37.2-4.42 0-1.35-.11-2.89-.1-1.55-.43-3.09t-.89-2.96q-.55-1.43-1.47-2.5-.92-1.08-2.22-1.73-1.3-.66-3.07-.66-1.73 0-3.08.78t-2.39 2.04q-1.04 1.27-1.79 2.9-.74 1.63-1.21 3.34-.47 1.72-.68 3.38-.21 1.67-.21 2.98v20.08h-11.75v-40.04h4.51l5.37 9.32q.97-2.32 2.43-4.23 1.45-1.9 3.29-3.26 1.84-1.35 4.08-2.08 2.23-.72 4.83-.72 4.16 0 7.25 1.35 3.08 1.35 5.13 3.76 2.04 2.41 3.05 5.72 1 3.31 1 7.23m14.25 3.95q2.15.48 4.3.76t4.33.28q2.29 0 4.25-.43 1.96-.44 3.4-1.46 1.43-1.02 2.27-2.72.83-1.7.83-4.23 0-2.05-.56-3.74-.55-1.7-1.64-2.92-1.1-1.21-2.69-1.89-1.59-.67-3.71-.67-1.98 0-3.55.73-1.58.72-2.78 1.95-1.19 1.24-2.04 2.86-.85 1.63-1.41 3.4-.55 1.77-.79 3.57-.25 1.81-.25 3.4v.55q0 .28.04.56m28.88-7.9q0 2.46-.8 4.38t-2.17 3.38-3.17 2.46q-1.8 1.01-3.85 1.65-2.04.64-4.21.92t-4.21.28q-2.6 0-5.13-.37-2.53-.36-4.99-1.16.38 2.29 1.21 4.35t2.22 3.61q1.38 1.54 3.41 2.44t4.8.9q1.84 0 3.51-.55 1.66-.56 3.05-1.56 1.38-1.01 2.44-2.4 1.06-1.38 1.72-3.08l5.06 1.87q-1.15 2.74-3.14 4.73-1.99 2-4.51 3.3-2.51 1.3-5.34 1.92-2.82.62-5.59.62-4.58 0-8.46-1.54-3.89-1.54-6.69-4.31-2.81-2.78-4.41-6.63-1.59-3.84-1.59-8.42t1.59-8.42q1.6-3.85 4.41-6.63 2.8-2.77 6.69-4.31 3.88-1.54 8.46-1.54 2.21 0 4.54.31 2.32.31 4.5.99 2.19.67 4.13 1.75 1.94 1.07 3.38 2.65t2.29 3.66.85 4.75"/><rect width="477.89" height="80.23" x="381.768" y="-376.983" fill="none" rx="0" ry="0" transform="translate(441.56 400.38)"/><path fill="#0007d1" d="m776.068 32.04 2.388-4.353.537 4.935 3.873-3.108-1.392 4.767 4.767-1.392-3.108 3.873 4.935.537-4.353 2.388 4.353 2.388-4.935.537 3.108 3.873-4.767-1.392 1.392 4.767-3.873-3.108-.537 4.935-2.388-4.353-2.388 4.353-.537-4.935-3.873 3.108 1.392-4.767-4.767 1.392 3.108-3.873-4.935-.537 4.353-2.388-4.353-2.388 4.935-.537-3.108-3.873 4.767 1.392-1.392-4.767 3.873 3.108.537-4.935Z"/></g><path fill="transparent" stroke="transparent" stroke-width=".58" d="M841.324 27.293h317.352v46.414H841.324z"/></g></svg>